HIERARCHY
ROOT Hips
{
	OFFSET 0.00 0.00 0.00
	CHANNELS 6 Xposition Yposition Zposition Xrotation Yrotation Zrotation
	JOINT LeftUpLeg
	{
		OFFSET 2.83210 0.00000 0.00000
		CHANNELS 3 Xrotation Yrotation Zrotation
		JOINT LeftLeg
		{
			OFFSET 0.00000 -16.27150 0.00000
			CHANNELS 3 Xrotation Yrotation Zrotation
			JOINT LeftFoot
			{
				OFFSET 0.00000 -14.95190 0.00000
				CHANNELS 3 Xrotation Yrotation Zrotation
				JOINT LeftToeBase
				{
					OFFSET 0.00000 -1.07991 4.03030
					CHANNELS 3 Xrotation Yrotation Zrotation
					End Site
					{
						OFFSET 0.00000 0.00000 2.95275
					}
				}
			}
		}
	}
	JOINT RightUpLeg
	{
		OFFSET -2.83210 0.00000 0.00000
		CHANNELS 3 Xrotation Yrotation Zrotation
		JOINT RightLeg
		{
			OFFSET 0.00000 -16.27150 0.00000
			CHANNELS 3 Xrotation Yrotation Zrotation
			JOINT RightFoot
			{
				OFFSET 0.00000 -14.95190 0.00000
				CHANNELS 3 Xrotation Yrotation Zrotation
				JOINT RightToeBase
				{
					OFFSET 0.00000 -1.07991 4.03030
					CHANNELS 3 Xrotation Yrotation Zrotation
					End Site
					{
						OFFSET 0.00000 0.00000 2.95275
					}
				}
			}
		}
	}
	JOINT Spine
	{
		OFFSET 0.00000 0.03937 0.00000
		CHANNELS 3 Xrotation Yrotation Zrotation
		JOINT Spine1
		{
			OFFSET 0.00000 8.01054 0.00000
			CHANNELS 3 Xrotation Yrotation Zrotation
			JOINT Neck
			{
				OFFSET 0.00000 8.21888 0.00000
				CHANNELS 3 Xrotation Yrotation Zrotation
				JOINT Head
				{
					OFFSET 0.00000 3.25664 0.00000
					CHANNELS 3 Xrotation Yrotation Zrotation
					End Site
					{
						OFFSET 0.00000 4.52755 0.00000
					}
				}
			}
			JOINT LeftShoulder
			{
				OFFSET 0.00000 8.21888 0.00000
				CHANNELS 3 Xrotation Yrotation Zrotation
				JOINT LeftArm
				{
					OFFSET 6.52904 -0.00002 0.00000
					CHANNELS 3 Xrotation Yrotation Zrotation
					JOINT LeftForeArm
					{
						OFFSET 10.44840 -0.00004 0.00000
						CHANNELS 3 Xrotation Yrotation Zrotation
						JOINT LeftHand
						{
							OFFSET 8.94727 -0.00003 0.00000
							CHANNELS 3 Xrotation Yrotation Zrotation
							JOINT LeftHandThumb
							{
								OFFSET 0.00000 0.00000 0.00000
								CHANNELS 3 Xrotation Yrotation Zrotation
								End Site
								{
									OFFSET 0.00000 0.00000 3.93700
								}
							}
							JOINT L_Wrist_End
							{
								OFFSET 3.93700 -0.00001 0.00000
								CHANNELS 3 Xrotation Yrotation Zrotation
							}
						}
					}
				}
			}
			JOINT RightShoulder
			{
				OFFSET 0.00000 8.21888 0.00000
				CHANNELS 3 Xrotation Yrotation Zrotation
				JOINT RightArm
				{
					OFFSET -6.52904 -0.00002 0.00000
					CHANNELS 3 Xrotation Yrotation Zrotation
					JOINT RightForeArm
					{
						OFFSET -10.44840 -0.00004 0.00000
						CHANNELS 3 Xrotation Yrotation Zrotation
						JOINT RightHand
						{
							OFFSET -8.94727 -0.00003 0.00000
							CHANNELS 3 Xrotation Yrotation Zrotation
							JOINT RightHandThumb
							{
								OFFSET 0.00000 0.00000 0.00000
								CHANNELS 3 Xrotation Yrotation Zrotation
								End Site
								{
									OFFSET 0.00000 0.00000 3.93700
								}
							}
							JOINT R_Wrist_End
							{
								OFFSET -5.39369 -0.00002 0.00000
								CHANNELS 3 Xrotation Yrotation Zrotation
							}
						}
					}
				}
			}
		}
	}
}
MOTION
Frames: 14
Frame Time: 0.008333
 -3.1118 33.1975 -5.0118 7.6921 -13.5448 1.0169 -9.8594 7.0641 2.9293 14.6491 -0.0000 0.0000 -10.7660 29.1514 0.6834 17.0543 -0.0000 0.0000 -6.7383 16.9052 -0.5984 3.4101 -0.0000 0.0000 -1.5856 -15.1099 19.9814 10.8491 0.0000 0.0000 -9.5174 3.3126 -7.6337 12.4282 -5.5745 8.7268 -22.7098 21.2486 -3.5445 -16.0427 -35.8988 -5.8490 15.8438 16.0685 0.2646 -55.8990 -79.3239 -101.3184 -0.0003 -54.5686 -0.0002 7.0607 -8.4271 -12.8082 -0.0000 -0.0000 0.0000 -0.0000 -0.0000 0.0000 19.9479 -16.0907 2.0319 -19.5933 42.9981 73.1093 -0.0001 17.2868 0.0000 -3.1065 -2.3283 -1.3332 -0.0000 0.0000 0.0000 -0.0000 0.0000 0.0000
 -3.0495 33.1932 -4.9881 7.7324 -13.5404 0.9926 -9.6647 7.7684 2.9478 14.1380 -0.0000 0.0000 -10.4614 28.4354 0.1465 17.3295 0.0000 0.0000 -6.8656 16.7670 -0.6562 3.6580 0.0000 0.0000 -1.7550 -14.9422 20.2914 11.0804 -0.0000 -0.0000 -9.5666 3.3138 -7.6219 12.4009 -5.5495 8.8546 -22.7881 21.2670 -3.4730 -15.9255 -35.9015 -5.9902 15.9039 16.1024 0.1830 -55.2318 -79.2992 -100.6117 -0.0003 -54.4374 -0.0002 7.3714 -8.5935 -12.3237 -0.0000 0.0000 -0.0000 -0.0000 0.0000 -0.0000 19.8968 -16.0673 2.0503 -19.4125 42.7492 72.5023 -0.0001 17.1587 0.0000 -3.0360 -2.3288 -1.1304 -0.0000 0.0000 0.0000 -0.0000 0.0000 0.0000
 -2.9787 33.1944 -4.9707 7.8223 -13.6280 1.1186 -9.4968 8.6163 2.8111 13.5891 -0.0000 0.0000 -10.1044 27.6743 -0.1137 17.2282 0.0000 -0.0000 -7.0363 17.0454 -0.8160 3.9256 -0.0000 0.0000 -1.7843 -15.1457 19.8253 10.6200 0.0000 0.0000 -9.6296 3.3097 -7.8049 12.3747 -5.4706 9.1390 -23.3013 21.4986 -3.2071 -15.3378 -35.9028 -6.2990 16.1864 16.1787 -0.1515 -54.3263 -79.2228 -99.4528 -0.0003 -54.2339 -0.0001 7.7026 -8.7655 -12.1217 0.0000 -0.0000 0.0000 0.0000 -0.0000 0.0000 19.8583 -16.0006 1.9914 -19.2560 42.5952 71.7776 -0.0001 16.9868 0.0000 -3.0292 -2.2649 -1.2945 0.0000 0.0000 -0.0000 0.0000 0.0000 -0.0000
 -2.8874 33.1978 -4.9462 7.9284 -13.5901 1.3099 -9.2813 9.0988 2.4985 12.9702 -0.0000 0.0000 -9.7754 27.1949 -0.2299 17.1752 -0.0000 0.0000 -7.2066 17.0706 -1.1234 4.3087 -0.0000 0.0000 -2.3992 -15.3035 21.2392 12.9603 -0.0000 0.0000 -9.7084 3.2875 -7.8512 12.3505 -5.4923 9.1781 -23.6821 21.6258 -3.0417 -14.9053 -35.9076 -6.4962 16.3130 16.2598 -0.3978 -53.2845 -79.1437 -98.2703 -0.0003 -53.8550 -0.0001 8.0861 -8.9894 -11.9162 0.0000 -0.0000 0.0000 0.0000 -0.0000 0.0000 19.8128 -16.0130 2.0386 -19.1588 42.3255 71.0431 -0.0001 16.8157 0.0000 -2.7011 -2.3239 -1.6643 0.0000 0.0000 0.0000 0.0000 0.0000 0.0000
 -2.7945 33.2014 -4.9242 8.0387 -13.4989 1.5304 -9.1266 9.5278 2.1426 12.4719 0.0000 0.0000 -9.4945 26.7183 -0.2978 17.3006 -0.0000 0.0000 -7.4682 16.7562 -1.4087 4.8027 -0.0000 -0.0000 -2.5482 -15.0816 20.6859 12.3258 0.0000 0.0000 -9.7102 3.2624 -7.9059 12.1945 -5.5193 9.1754 -23.8528 21.6782 -2.9137 -14.7121 -35.8954 -6.7538 16.5030 16.2870 -0.6156 -52.1578 -79.0134 -96.9653 -0.0003 -53.3168 -0.0001 8.5733 -9.2825 -11.7652 -0.0000 -0.0000 -0.0000 -0.0000 -0.0000 -0.0000 19.7694 -16.1233 2.1029 -19.0819 41.9945 70.3277 -0.0001 16.6269 0.0000 -2.3366 -2.3334 -2.2624 -0.0000 -0.0000 -0.0000 -0.0000 -0.0000 -0.0000
 -2.7058 33.2061 -4.9069 8.1605 -13.3775 1.7419 -9.0126 9.8021 1.7804 12.0340 -0.0000 0.0000 -9.2567 26.3778 -0.2316 17.3186 -0.0000 0.0000 -7.7435 16.5936 -1.6702 5.2826 0.0000 0.0000 -2.6769 -15.0599 20.0470 11.6924 -0.0000 0.0000 -9.7064 3.2207 -7.9566 12.0299 -5.5689 9.1503 -24.1233 21.7254 -2.8198 -14.3246 -35.9042 -6.8578 16.5975 16.3379 -0.7547 -50.9626 -78.8336 -95.6515 -0.0003 -52.6185 -0.0001 9.0490 -9.6410 -11.6207 -0.0000 -0.0000 -0.0000 -0.0000 -0.0000 -0.0000 19.7310 -16.2188 2.1492 -19.1029 41.4848 69.6863 -0.0001 16.4665 0.0000 -1.8346 -2.4533 -3.0859 -0.0000 -0.0000 0.0000 -0.0000 -0.0000 0.0000
 -2.6201 33.2111 -4.8932 8.2727 -13.2659 1.9399 -8.8945 9.9503 1.4193 11.6127 0.0000 0.0000 -9.0385 26.2312 -0.0552 17.2319 -0.0000 0.0000 -8.0290 16.5445 -1.9050 5.7894 0.0000 -0.0000 -2.8224 -15.1501 19.4677 11.1361 0.0000 0.0000 -9.6827 3.1912 -7.9905 11.8558 -5.6072 9.1154 -24.3635 21.7471 -2.7365 -13.9878 -35.9068 -6.9934 16.6561 16.3817 -0.8697 -49.6608 -78.6147 -94.2360 -0.0003 -51.7830 -0.0001 9.7411 -9.8363 -11.4503 -0.0000 -0.0000 -0.0000 -0.0000 -0.0000 -0.0000 19.6692 -16.3554 2.1468 -19.2491 40.7726 69.1671 -0.0001 16.3233 0.0000 -1.3033 -2.6158 -3.9015 -0.0000 0.0000 0.0000 -0.0000 0.0000 0.0000
 -2.5361 33.2163 -4.8790 8.3577 -13.1617 2.1235 -8.7332 9.9189 1.0463 11.1750 -0.0000 0.0000 -8.8544 26.1900 0.0585 17.3282 0.0000 0.0000 -8.2942 16.6173 -2.1178 6.3158 -0.0000 -0.0000 -2.9849 -15.3590 18.8388 10.6024 -0.0000 0.0000 -9.6664 3.1665 -8.0201 11.7268 -5.6405 9.0807 -24.5816 21.7570 -2.6892 -13.6426 -35.8983 -7.0596 16.6413 16.4221 -0.9212 -48.3456 -78.3346 -92.8375 -0.0003 -50.8216 -0.0001 10.4072 -9.8824 -11.3142 -0.0000 0.0000 0.0000 -0.0000 0.0000 0.0000 19.6015 -16.4754 2.1078 -19.4849 39.8768 68.7026 -0.0001 16.2101 0.0000 -0.6773 -2.8415 -4.7942 0.0000 -0.0000 -0.0000 0.0000 -0.0000 -0.0000
 -2.4539 33.2200 -4.8675 8.4293 -13.0622 2.2837 -8.5674 9.7946 0.6833 10.7425 0.0000 0.0000 -8.7755 26.2248 0.4343 17.3785 0.0000 0.0000 -8.5881 16.6925 -2.2923 6.9060 0.0000 0.0000 -3.1984 -15.5822 18.2677 10.1936 -0.0000 -0.0000 -9.6425 3.1471 -8.0335 11.6088 -5.6674 9.0495 -24.7882 21.7831 -2.6035 -13.3611 -35.8942 -7.2148 16.6246 16.4339 -0.9488 -46.9219 -77.9719 -91.3056 -0.0002 -49.7590 -0.0001 11.1190 -9.7648 -11.2799 0.0000 0.0000 -0.0000 0.0000 0.0000 -0.0000 19.4806 -16.6055 2.0135 -19.7753 38.7935 68.3035 -0.0001 16.1385 0.0000 -0.2130 -3.0119 -5.5854 -0.0000 0.0000 0.0000 -0.0000 0.0000 0.0000
 -2.3727 33.2223 -4.8561 8.4808 -12.9985 2.4388 -8.3846 9.5932 0.3224 10.3294 -0.0000 0.0000 -8.6817 26.3735 0.6773 17.4919 0.0000 0.0000 -8.8850 16.8273 -2.4524 7.5433 -0.0000 0.0000 -3.4452 -15.8374 17.8010 9.8646 -0.0000 -0.0000 -9.6034 3.1379 -8.0426 11.4930 -5.6814 9.0204 -24.9608 21.8320 -2.4787 -13.1739 -35.8899 -7.4634 16.6088 16.4306 -0.9739 -45.4612 -77.5470 -89.7210 -0.0002 -48.5517 -0.0001 11.9319 -9.5957 -11.2029 -0.0000 0.0000 -0.0000 -0.0000 0.0000 -0.0000 19.3453 -16.6986 1.8882 -20.0785 37.5918 67.8956 -0.0001 16.0833 0.0000 0.1626 -3.2107 -6.3444 -0.0000 -0.0000 0.0000 -0.0000 -0.0000 0.0000
 -2.2952 33.2221 -4.8482 8.5163 -12.9607 2.5616 -8.1772 9.2588 -0.0102 9.8818 -0.0000 0.0000 -8.6040 26.6645 0.9012 17.5654 0.0000 0.0000 -9.2066 17.0337 -2.5610 8.2268 -0.0000 0.0000 -3.7077 -16.1321 17.3104 9.5476 0.0000 0.0000 -9.5459 3.1385 -8.0380 11.3862 -5.6821 8.9963 -25.0991 21.9089 -2.3098 -13.0894 -35.8985 -7.7902 16.5652 16.4407 -0.9927 -44.0308 -77.1189 -88.1309 -0.0002 -47.2400 -0.0001 12.4997 -9.3645 -11.1896 -0.0000 -0.0000 -0.0000 -0.0000 -0.0000 -0.0000 19.2038 -16.7708 1.7515 -20.4134 36.2987 67.4879 -0.0001 16.0514 0.0000 0.3972 -3.3668 -7.1815 -0.0000 0.0000 -0.0000 -0.0000 0.0000 -0.0000
 -2.2160 33.2209 -4.8444 8.5464 -12.9418 2.6897 -8.0212 9.0245 -0.3290 9.5343 -0.0000 0.0000 -8.5617 26.8667 1.1512 17.6194 -0.0000 0.0000 -9.5377 17.2956 -2.6716 8.9413 -0.0000 0.0000 -4.0016 -16.4476 16.9452 9.3454 0.0000 0.0000 -9.4677 3.1434 -8.0316 11.2718 -5.6754 8.9729 -25.2112 21.9934 -2.1424 -13.0499 -35.8934 -8.1352 16.5412 16.4126 -1.0409 -42.4693 -76.6400 -86.3532 -0.0002 -45.8298 -0.0001 12.8398 -9.1699 -11.2781 -0.0000 0.0000 -0.0000 -0.0000 0.0000 -0.0000 19.0412 -16.7976 1.5849 -20.7378 34.8802 67.0425 -0.0001 16.0652 0.0000 0.4664 -3.4637 -7.9547 -0.0000 -0.0000 -0.0000 -0.0000 -0.0000 -0.0000
 -2.1394 33.2177 -4.8463 8.5822 -12.9678 2.8065 -7.9001 8.8454 -0.6086 9.2314 -0.0000 0.0000 -8.5171 27.0631 1.2952 17.6984 -0.0000 0.0000 -9.9099 17.6353 -2.7458 9.6975 -0.0000 -0.0000 -4.3273 -16.8095 16.7721 9.2718 0.0000 -0.0000 -9.3613 3.1644 -8.0172 11.1308 -5.6484 8.9539 -25.2644 22.0505 -2.0315 -13.0668 -35.8647 -8.4176 16.4897 16.3916 -1.1092 -40.8852 -76.1583 -84.5174 -0.0002 -44.3244 -0.0001 12.8741 -9.0061 -11.5377 0.0000 0.0000 0.0000 0.0000 0.0000 0.0000 18.8750 -16.8064 1.4070 -21.0740 33.4281 66.5807 -0.0001 16.0891 0.0000 0.4207 -3.4821 -8.7503 0.0000 -0.0000 0.0000 0.0000 -0.0000 0.0000
 -2.0681 33.2124 -4.8481 8.6133 -13.0352 2.9222 -7.7793 8.7212 -0.8605 8.9517 -0.0000 0.0000 -8.4619 27.2100 1.3411 17.7472 0.0000 0.0000 -10.2783 18.0570 -2.8032 10.4543 -0.0000 -0.0000 -4.6969 -17.1744 16.6792 9.2691 0.0000 -0.0000 -9.2774 3.2025 -8.0152 11.0356 -5.6019 8.9476 -25.2785 22.1420 -1.8815 -13.2033 -35.8361 -8.7929 16.4553 16.3560 -1.1980 -39.2339 -75.6642 -82.5368 -0.0002 -42.7482 -0.0001 12.7955 -8.7893 -11.8267 -0.0000 -0.0000 -0.0000 -0.0000 -0.0000 -0.0000 18.7170 -16.8128 1.2239 -21.4414 32.0720 66.1014 -0.0001 16.0526 0.0000 0.1174 -3.4017 -9.6065 0.0000 -0.0000 0.0000 0.0000 -0.0000 0.0000
